Coordinates
version=1
nRows=20
nColumns=32
inDegrees=yes

Units are S.I. units (second, meters, Newtons, ...)
If the header above contains a line with 'inDegrees', this indicates whether rotational values are in degrees (yes) or radians (no).

endheader
time	pelvis_tilt	pelvis_list	pelvis_rotation	pelvis_tx	pelvis_ty	pelvis_tz	hip_flexion_r	hip_adduction_r	hip_rotation_r	knee_angle_r	knee_adduction_r	med_cond_adduction_r	lat_cond_adduction_r	patella_r_constrained_knee_angle	ankle_angle_r	subtalar_angle_r	mtp_angle_r	hip_flexion_l	hip_adduction_l	hip_rotation_l	knee_angle_l	knee_adduction_l	med_cond_adduction_l	lat_cond_adduction_l	patella_l_constrained_knee_angle	ankle_angle_l	subtalar_angle_l	mtp_angle_l	lumbar_extension	lumbar_bending	lumbar_rotation
      1.77000000	     -9.42314401	     -3.34757905	     -1.69418597	      0.16436630	      0.51843002	     -1.20850809	     86.83989364	    -43.50188897	     -7.05490125	   -113.26204511	     -9.41547818	      0.00000000	      0.00000000	     -1.97679560	     28.88062674	     16.59381880	     -0.00000000	     97.60607965	    -47.70897423	      4.77927970	   -113.18588844	     -9.61557561	     -0.00000000	     -0.00000000	     -1.97546642	     26.15293220	     19.49354519	      0.00000000	    -29.97071812	      4.00982417	     -1.28228908
      1.77500000	     -9.31883422	     -3.30891027	     -1.71175860	      0.16442407	      0.51682680	     -1.20856307	     87.08702696	    -43.54763318	     -6.78616961	   -113.52915092	     -9.42873619	      0.00000000	      0.00000000	     -1.98145748	     28.90810092	     16.58288425	      0.00000000	     97.76444228	    -47.75070288	      4.92902236	   -113.46494683	     -9.62447436	      0.00000000	      0.00000000	     -1.98033691	     26.27306455	     19.49106675	     -0.00000000	    -30.17485186	      4.01251329	     -1.18232806
      1.78000000	     -9.24970729	     -3.09019975	     -1.77606511	      0.16444063	      0.51509119	     -1.20831103	     87.63403621	    -43.54129280	     -6.21127845	   -113.84944479	     -9.44126123	     -0.00000000	      0.00000000	     -1.98704766	     28.91788296	     16.58650663	     -0.00000000	     97.74002477	    -47.85148189	      4.80588939	   -113.72033472	     -9.63493969	      0.00000000	      0.00000000	     -1.98479427	     26.33867419	     19.48875489	     -0.00000000	    -30.29939369	      3.82060101	     -0.98258219
      1.78500000	     -9.15081379	     -3.27511551	     -1.73046304	      0.16451370	      0.51343792	     -1.20868968	     87.60739083	    -43.65251010	     -6.32043029	   -114.09675817	     -9.46549581	     -0.00000000	     -0.00000000	     -1.99136410	     28.94928315	     16.56442344	      0.00000000	     98.21877123	    -47.77863911	      5.34844974	   -114.02969584	     -9.64071484	     -0.00000000	     -0.00000000	     -1.99019364	     26.38840863	     19.48473079	     -0.00000000	    -30.47265983	      3.90548514	     -1.23633197
      1.79000000	     -9.03923687	     -3.31717803	     -1.74199515	      0.16458030	      0.51179779	     -1.20882687	     87.75887802	    -43.70174217	     -6.17570340	   -114.36202506	     -9.47840025	      0.00000000	     -0.00000000	     -1.99599388	     28.96798265	     16.54898095	     -0.00000000	     98.48074581	    -47.79487005	      5.65387422	   -114.30600556	     -9.64552192	      0.00000000	      0.00000000	     -1.99501615	     26.48546551	     19.48329144	     -0.00000000	    -30.64315597	      3.99925778	     -1.12485270
      1.79500000	     -8.96859787	     -3.11433759	     -1.79616808	      0.16461491	      0.51007578	     -1.20865232	     88.27620670	    -43.69936351	     -5.62490109	   -114.66743435	     -9.48954875	     -0.00000000	     -0.00000000	     -2.00132427	     28.98252196	     16.54614926	     -0.00000000	     98.47088443	    -47.86576744	      5.55792031	   -114.58298898	     -9.65542082	      0.00000000	      0.00000000	     -1.99985042	     26.57395619	     19.48168650	     -0.00000000	    -30.78892460	      3.86502789	     -0.90351515
      1.80000000	     -8.86561238	     -3.26346762	     -1.75324932	      0.16469509	      0.50840573	     -1.20901739	     88.29433776	    -43.80951853	     -5.65771707	   -114.91899455	     -9.50861551	     -0.00000000	     -0.00000000	     -2.00571483	     29.01031337	     16.56405533	     -0.00000000	     98.89123375	    -47.78000292	      6.04640367	   -114.89083004	     -9.66126624	     -0.00000000	     -0.00000000	     -2.00522326	     26.61054756	     19.47825529	     -0.00000000	    -30.95337522	      3.91781366	     -1.15601463
      1.80500000	     -8.76765948	     -3.20271708	     -1.81679867	      0.16475490	      0.50672198	     -1.20896658	     88.60260800	    -43.78871723	     -5.33910192	   -115.20464901	     -9.52279196	      0.00000000	      0.00000000	     -2.01070044	     29.02392074	     16.52267407	      0.00000000	     99.04754952	    -47.85565074	      6.20026976	   -115.17345260	     -9.66866115	      0.00000000	      0.00000000	     -2.01015596	     26.70826966	     19.47692976	      0.00000000	    -31.10922789	      3.91411958	     -0.93664183
      1.81000000	     -8.66683889	     -3.29151481	     -1.80169568	      0.16483551	      0.50503483	     -1.20922076	     88.70873363	    -43.86471562	     -5.26680220	   -115.46306534	     -9.53774015	     -0.00000000	      0.00000000	     -2.01521065	     29.04709490	     16.52226509	      0.00000000	     99.38465214	    -47.79942149	      6.59350644	   -115.47622825	     -9.67471775	     -0.00000000	     -0.00000000	     -2.01544039	     26.78551403	     19.47288813	      0.00000000	    -31.26916110	      4.04071087	     -0.90341297
      1.81500000	     -8.55451095	     -3.33157754	     -1.82226171	      0.16490619	      0.50335344	     -1.20937564	     88.87204354	    -43.88530073	     -5.10226807	   -115.73227905	     -9.55291536	      0.00000000	      0.00000000	     -2.01990932	     29.06405788	     16.48796862	      0.00000000	     99.65660924	    -47.79804481	      6.91155697	   -115.77837409	     -9.68022780	      0.00000000	      0.00000000	     -2.02071383	     26.84670585	     19.46971346	      0.00000000	    -31.43607295	      4.02994664	     -0.96051381
      1.82000000	     -8.44319730	     -3.33730074	     -1.85295190	      0.16499868	      0.50168277	     -1.20945638	     89.07288162	    -43.90465703	     -4.89280745	   -116.00280826	     -9.56554555	     -0.00000000	     -0.00000000	     -2.02463095	     29.08174175	     16.47079956	      0.00000000	     99.87350386	    -47.81007162	      7.17815863	   -116.06611756	     -9.68654977	      0.00000000	      0.00000000	     -2.02573590	     26.93614159	     19.46698380	      0.00000000	    -31.59487568	      4.04587931	     -0.89534736
      1.82500000	     -8.33625817	     -3.33175542	     -1.89332710	      0.16509028	      0.49998949	     -1.20953236	     89.30124985	    -43.90309545	     -4.65016485	   -116.27625854	     -9.57535494	      0.00000000	      0.00000000	     -2.02940355	     29.09702955	     16.43034216	     -0.00000000	    100.08544741	    -47.83578292	      7.42239837	   -116.36098663	     -9.69294531	     -0.00000000	     -0.00000000	     -2.03088234	     27.03947268	     19.46327998	      0.00000000	    -31.74923279	      4.05889445	     -0.79957495
      1.83000000	     -8.22278146	     -3.19502375	     -1.95876693	      0.16514198	      0.49829185	     -1.20942705	     89.69767029	    -43.86326967	     -4.18629331	   -116.57452027	     -9.58613708	      0.00000000	      0.00000000	     -2.03460920	     29.10906837	     16.41391741	     -0.00000000	    100.11103703	    -47.89638604	      7.46015867	   -116.63965899	     -9.69948194	      0.00000000	     -0.00000000	     -2.03574609	     27.13482798	     19.46089280	     -0.00000000	    -31.89397519	      3.86747025	     -0.76154156
      1.83500000	     -8.07800198	     -3.25792440	     -1.93848568	      0.16526126	      0.49667059	     -1.20969327	     89.78711763	    -43.94117358	     -4.04952887	   -116.83268516	     -9.59701472	     -0.00000000	     -0.00000000	     -2.03911503	     29.13050035	     16.46484329	     -0.00000000	    100.35607539	    -47.84001220	      7.80083351	   -116.94233566	     -9.70530257	     -0.00000000	     -0.00000000	     -2.04102879	     27.20451066	     19.45579304	      0.00000000	    -32.07603155	      3.88293302	     -0.88113209
      1.84000000	     -7.93139450	     -3.24418762	     -1.95766584	      0.16538550	      0.49506490	     -1.20980749	     89.97617154	    -43.96659641	     -3.78808461	   -117.09861117	     -9.60711860	     -0.00000000	     -0.00000000	     -2.04375631	     29.14874013	     16.47536046	     -0.00000000	    100.50246116	    -47.84871647	      8.01999947	   -117.23659106	     -9.70943189	      0.00000000	      0.00000000	     -2.04616452	     27.28486046	     19.45162833	      0.00000000	    -32.25261393	      3.81414080	     -0.94293706
      1.84500000	     -7.84345550	     -3.20609510	     -2.05253308	      0.16544574	      0.49328687	     -1.20974175	     90.27614405	    -43.86821961	     -3.48571089	   -117.38810794	     -9.61863265	     -0.00000000	     -0.00000000	     -2.04880899	     29.15312626	     16.35280817	      0.00000000	    100.71111574	    -47.91857318	      8.24967640	   -117.52613461	     -9.71814134	      0.00000000	      0.00000000	     -2.05121801	     27.37011893	     19.44889593	     -0.00000000	    -32.35348707	      3.74752080	     -0.82716462
      1.85000000	     -7.71575147	     -3.25743277	     -2.07731910	      0.16555402	      0.49162972	     -1.20988425	     90.40196490	    -43.87173572	     -3.33756344	   -117.64960526	     -9.62990390	      0.00000000	      0.00000000	     -2.05337298	     29.17081182	     16.30858703	      0.00000000	    100.96732523	    -47.90077598	      8.59997121	   -117.82263966	     -9.72201538	     -0.00000000	     -0.00000000	     -2.05639300	     27.44590770	     19.44553468	     -0.00000000	    -32.50950962	      3.84540234	     -0.70708716
      1.85500000	     -7.56444943	     -3.34210522	     -2.10187018	      0.16567465	      0.49004240	     -1.21007816	     90.45671143	    -43.88535854	     -3.24551216	   -117.90531918	     -9.64029013	     -0.00000000	     -0.00000000	     -2.05783603	     29.18554606	     16.25417864	      0.00000000	    101.24008643	    -47.89211776	      8.99256242	   -118.11406474	     -9.72447090	      0.00000000	      0.00000000	     -2.06147932	     27.53243853	     19.44159639	      0.00000000	    -32.67736096	      3.97951684	     -0.57623972
      1.86000000	     -7.42882822	     -3.34317578	     -2.13464578	      0.16575880	      0.48841257	     -1.21019241	     90.63976600	    -43.86105599	     -3.00190028	   -118.16649721	     -9.64935403	      0.00000000	      0.00000000	     -2.06239444	     29.19856079	     16.21940247	      0.00000000	    101.42152152	    -47.89456354	      9.24596913	   -118.40766003	     -9.73051986	     -0.00000000	     -0.00000000	     -2.06660353	     27.60807320	     19.43966723	      0.00000000	    -32.82943652	      4.05967416	     -0.40113580
      1.86500000	     -7.22550924	     -3.39332285	     -2.07145362	      0.16592927	      0.48696168	     -1.21055647	     90.66048588	    -43.99365630	     -2.83794987	   -118.40949285	     -9.65825862	     -0.00000000	     -0.00000000	     -2.06663552	     29.21935418	     16.33877419	      0.00000000	    101.53740539	    -47.79036073	      9.52749907	   -118.69540749	     -9.73478719	     -0.00000000	     -0.00000000	     -2.07162567	     27.68794486	     19.43433480	      0.00000000	    -33.04391624	      3.96433961	     -0.77645888
